<?xml version="1.0" encoding="UTF-8" standalone="no"?>
<!-- Created with Inkscape (http://www.inkscape.org/) -->

<svg
   xmlns:dc="http://purl.org/dc/elements/1.1/"
   xmlns:cc="http://creativecommons.org/ns#"
   xmlns:rdf="http://www.w3.org/1999/02/22-rdf-syntax-ns#"
   xmlns:svg="http://www.w3.org/2000/svg"
   xmlns="http://www.w3.org/2000/svg"
   xmlns:sodipodi="http://sodipodi.sourceforge.net/DTD/sodipodi-0.dtd"
   xmlns:inkscape="http://www.inkscape.org/namespaces/inkscape"
   width="327.84036"
   height="328.9118"
   viewBox="0 0 86.741096 87.024585"
   version="1.1"
   id="svg8"
   inkscape:version="0.92.2 (5c3e80d, 2017-08-06)"
   sodipodi:docname="bitlife logo vector.svg">
  <defs
     id="defs2" />
  <sodipodi:namedview
     id="base"
     pagecolor="#ffffff"
     bordercolor="#666666"
     borderopacity="1.0"
     inkscape:pageopacity="0.0"
     inkscape:pageshadow="2"
     inkscape:zoom="0.93338095"
     inkscape:cx="75.780972"
     inkscape:cy="202.00164"
     inkscape:document-units="mm"
     inkscape:current-layer="g112"
     showgrid="false"
     inkscape:window-width="1360"
     inkscape:window-height="705"
     inkscape:window-x="-8"
     inkscape:window-y="-8"
     inkscape:window-maximized="1"
     fit-margin-top="0"
     fit-margin-left="0"
     fit-margin-right="-0.4"
     fit-margin-bottom="0"
     units="px" />
  <metadata
     id="metadata5">
    <rdf:RDF>
      <cc:Work
         rdf:about="">
        <dc:format>image/svg+xml</dc:format>
        <dc:type
           rdf:resource="http://purl.org/dc/dcmitype/StillImage" />
        <dc:title></dc:title>
      </cc:Work>
    </rdf:RDF>
  </metadata>
  <g
     inkscape:label="Layer 1"
     inkscape:groupmode="layer"
     id="layer1"
     transform="translate(-7.0866923,-88.367783)">
    <g
       id="g112">
      <rect
         y="88.367783"
         x="7.0866923"
         height="87.024582"
         width="86.741096"
         id="rect12"
         style="fill:#000000;stroke-width:0.1659784" />
      <path
         style="fill:#d4aa00;stroke-width:0.260766"
         d="M 60.131987,123.45612 A 20.826025,20.259087 0 0 1 39.305962,143.71521 20.826025,20.259087 0 0 1 18.479937,123.45612 20.826025,20.259087 0 0 1 39.305962,103.19704 20.826025,20.259087 0 0 1 60.131987,123.45612 Z"
         id="path14" />
      <path
         transform="rotate(17.285522)"
         style="fill:#ffffff;stroke-width:0.26458332"
         d="m 67.045601,94.483688 h 1.261361 v 3.08548 h -1.261361 z"
         id="rect24" />
      <path
         transform="rotate(17.285523)"
         style="fill:#ffffff;stroke-width:0.26458332"
         d="m 70.932465,94.334641 h 1.261361 v 3.085479 h -1.261361 z"
         id="rect24-1" />
      <path
         transform="rotate(17.285523)"
         style="fill:#ffffff;stroke-width:0.26458332"
         d="m 67.627457,114.4006 h 1.261361 v 3.08548 h -1.261361 z"
         id="rect24-4" />
      <path
         transform="rotate(17.285523)"
         style="fill:#ffffff;stroke-width:0.26458332"
         d="m 71.99221,114.28383 h 1.261362 v 3.08548 H 71.99221 Z"
         id="rect24-9" />
      <path
         style="fill:#cccccc;stroke-width:0.23701619"
         d="M 72.840702,147.77098 A 19.523155,17.853783 0 0 1 53.317547,165.62476 19.523155,17.853783 0 0 1 33.794392,147.77098 19.523155,17.853783 0 0 1 53.317547,129.9172 19.523155,17.853783 0 0 1 72.840702,147.77098 Z"
         id="path14-3" />
      <g
         aria-label="it"
         transform="scale(1.0027942,0.9972136)"
         style="font-style:normal;font-weight:normal;font-size:12.72936821px;line-height:1.25;font-family:sans-serif;letter-spacing:0px;word-spacing:0px;fill:#ffffff;fill-opacity:1;stroke:none;stroke-width:0.31823421"
         id="text81">
        <path
           d="m 44.569158,123.43384 h 1.143654 v 6.96138 h -1.143654 z m 0,-2.70996 h 1.143654 v 1.44822 h -1.143654 z"
           style="fill:#ffffff;stroke-width:0.31823421"
           id="path138" />
        <path
           d="m 49.230792,121.45731 v 1.97653 h 2.355679 v 0.88882 h -2.355679 v 3.77903 q 0,0.85153 0.229974,1.09393 0.236189,0.24241 0.950973,0.24241 h 1.174732 v 0.95719 h -1.174732 q -1.323904,0 -1.82736,-0.49103 -0.503457,-0.49724 -0.503457,-1.8025 v -3.77903 h -0.839094 v -0.88882 h 0.839094 v -1.97653 z"
           style="fill:#ffffff;stroke-width:0.31823421"
           id="path140" />
      </g>
      <g
         aria-label="ife"
         style="font-style:normal;font-weight:normal;font-size:10.58333302px;line-height:1.25;font-family:sans-serif;letter-spacing:0px;word-spacing:0px;fill:#ffffff;fill-opacity:1;stroke:none;stroke-width:0.26458332"
         id="text85">
        <path
           d="m 54.715788,149.49979 h 0.950847 v 5.78776 h -0.950847 z m 0,-2.25309 h 0.950847 v 1.20406 h -0.950847 z"
           style="fill:#ffffff;stroke-width:0.26458332"
           id="path131" />
        <path
           d="m 60.581063,147.2467 v 0.79065 h -0.909505 q -0.511597,0 -0.713135,0.2067 -0.19637,0.20671 -0.19637,0.74414 v 0.5116 h 1.565796 v 0.73897 h -1.565796 v 5.04879 h -0.956014 v -5.04879 h -0.909505 v -0.73897 h 0.909505 v -0.40307 q 0,-0.96635 0.449585,-1.4056 0.449585,-0.44442 1.426269,-0.44442 z"
           style="fill:#ffffff;stroke-width:0.26458332"
           id="path133" />
        <path
           d="m 66.322315,152.15596 v 0.46509 h -4.371826 q 0.06201,0.98185 0.589111,1.49861 0.532267,0.5116 1.477946,0.5116 0.54777,0 1.059367,-0.13436 0.516764,-0.13436 1.023193,-0.40307 v 0.89917 q -0.511596,0.21704 -1.049031,0.33073 -0.537435,0.11368 -1.090373,0.11368 -1.384928,0 -2.196248,-0.80615 -0.806153,-0.80615 -0.806153,-2.18074 0,-1.42111 0.764812,-2.2531 0.769978,-0.83715 2.072224,-0.83715 1.167888,0 1.844849,0.75447 0.682129,0.74931 0.682129,2.04122 z m -0.950846,-0.27905 q -0.01034,-0.78032 -0.43925,-1.2454 -0.423747,-0.46509 -1.126546,-0.46509 -0.795817,0 -1.276408,0.44958 -0.475423,0.44959 -0.54777,1.26608 z"
           style="fill:#ffffff;stroke-width:0.26458332"
           id="path135" />
      </g>
      <g
         aria-label=".ca"
         style="font-style:normal;font-weight:normal;font-size:10.58333302px;line-height:1.25;font-family:sans-serif;letter-spacing:0px;word-spacing:0px;fill:#ffffff;fill-opacity:1;stroke:none;stroke-width:0.26458332"
         id="text89">
        <path
           d="m 72.088158,161.99266 h 1.090372 v 1.31258 h -1.090372 z"
           style="fill:#ffffff;stroke-width:0.26458332"
           id="path124" />
        <path
           d="m 79.488222,157.73969 v 0.88883 q -0.403076,-0.22221 -0.81132,-0.33073 -0.403076,-0.11369 -0.816487,-0.11369 -0.925008,0 -1.436605,0.58911 -0.511597,0.58395 -0.511597,1.64331 0,1.05937 0.511597,1.64848 0.511597,0.58395 1.436605,0.58395 0.413411,0 0.816487,-0.10852 0.408244,-0.11369 0.81132,-0.3359 v 0.8785 q -0.397908,0.18603 -0.826822,0.27905 -0.423747,0.093 -0.904338,0.093 -1.307414,0 -2.077393,-0.82166 -0.769978,-0.82165 -0.769978,-2.21692 0,-1.41593 0.775146,-2.22725 0.780314,-0.81132 2.134237,-0.81132 0.439249,0 0.857828,0.093 0.41858,0.0879 0.81132,0.26872 z"
           style="fill:#ffffff;stroke-width:0.26458332"
           id="path126" />
        <path
           d="m 83.782534,160.39585 q -1.152385,0 -1.596802,0.26355 -0.444417,0.26355 -0.444417,0.89917 0,0.50643 0.330729,0.80616 0.335896,0.29455 0.909505,0.29455 0.790649,0 1.266072,-0.5581 0.480591,-0.56328 0.480591,-1.49345 v -0.21188 z m 1.896525,-0.39274 v 3.30213 h -0.950847 v -0.8785 q -0.325561,0.5271 -0.81132,0.78031 -0.485758,0.24805 -1.188558,0.24805 -0.888834,0 -1.415934,-0.4961 -0.521932,-0.50126 -0.521932,-1.33841 0,-0.97669 0.651123,-1.47278 0.656291,-0.4961 1.953369,-0.4961 h 1.333252 v -0.093 q 0,-0.6563 -0.434082,-1.01286 -0.428914,-0.36174 -1.209228,-0.36174 -0.496094,0 -0.96635,0.11886 -0.470255,0.11885 -0.904337,0.35657 v -0.8785 q 0.521932,-0.20154 1.012858,-0.29973 0.490926,-0.10335 0.956014,-0.10335 1.255737,0 1.875854,0.65112 0.620118,0.65113 0.620118,1.97404 z"
           style="fill:#ffffff;stroke-width:0.26458332"
           id="path128" />
      </g>
      <g
         aria-label="B"
         transform="matrix(0.65220332,0.17676101,-0.1556688,0.57437839,-48.697109,-163.87637)"
         style="font-style:normal;font-weight:normal;font-size:40px;line-height:1.25;font-family:sans-serif;letter-spacing:0px;word-spacing:0px;fill:#ffffff;fill-opacity:1;stroke:none"
         id="flowRoot16">
        <path
           d="m 226.43164,427.23633 v 10.68359 h 6.32813 q 3.18359,0 4.70703,-1.30859 1.54297,-1.32813 1.54297,-4.04297 0,-2.73438 -1.54297,-4.02344 -1.52344,-1.30859 -4.70703,-1.30859 z m 0,-11.99219 v 8.78906 h 5.83984 q 2.89063,0 4.29688,-1.07422 1.42578,-1.09375 1.42578,-3.32031 0,-2.20703 -1.42578,-3.30078 -1.40625,-1.09375 -4.29688,-1.09375 z m -3.94531,-3.24219 h 10.07812 q 4.51172,0 6.95313,1.875 2.4414,1.875 2.4414,5.33203 0,2.67579 -1.25,4.25782 -1.25,1.58203 -3.67187,1.97265 2.91016,0.625 4.51172,2.61719 1.62109,1.97266 1.62109,4.94141 0,3.90625 -2.65625,6.03515 -2.65625,2.12891 -7.55859,2.12891 h -10.46875 z"
           style=""
           id="path121" />
      </g>
      <g
         aria-label="L"
         transform="matrix(0.54705239,0.00309372,-0.15029658,0.49194557,17.016956,-78.99238)"
         style="font-style:normal;font-weight:normal;font-size:40px;line-height:1.25;font-family:sans-serif;letter-spacing:0px;word-spacing:0px;fill:#ffffff;fill-opacity:1;stroke:none"
         id="flowRoot56">
        <path
           d="m 178.16797,446.55273 h 3.94531 v 25.83985 h 14.19922 v 3.32031 h -18.14453 z"
           style=""
           id="path118" />
      </g>
    </g>
  </g>
</svg>
